<svg xmlns="http://www.w3.org/2000/svg" viewBox="0 0 1200 640" role="img" aria-label="BloxTier arena grid">
  <defs>
    <linearGradient id="bg" x1="0" x2="1" y1="0" y2="1">
      <stop stop-color="#07110f"/>
      <stop offset="0.58" stop-color="#0e1916"/>
      <stop offset="1" stop-color="#14261f"/>
    </linearGradient>
    <linearGradient id="lane" x1="0" x2="1">
      <stop stop-color="#5df2a9" stop-opacity="0.08"/>
      <stop offset="0.55" stop-color="#68d8ff" stop-opacity="0.22"/>
      <stop offset="1" stop-color="#b7ff5a" stop-opacity="0.1"/>
    </linearGradient>
    <pattern id="grid" width="48" height="48" patternUnits="userSpaceOnUse">
      <path d="M48 0H0v48" fill="none" stroke="#5df2a9" stroke-opacity="0.09"/>
    </pattern>
  </defs>
  <rect width="1200" height="640" fill="url(#bg)"/>
  <rect width="1200" height="640" fill="url(#grid)"/>
  <path d="M0 478c180-72 338-84 474-36 153 54 281 50 382-12 116-72 226-90 344-44v254H0z" fill="url(#lane)"/>
  <circle cx="945" cy="142" r="88" fill="#68d8ff" opacity="0.1"/>
  <circle cx="960" cy="142" r="48" fill="none" stroke="#68d8ff" stroke-width="2" opacity="0.35"/>
  <path d="M116 155 354 78M820 430l245-80M78 394l196-64" fill="none" stroke="#5df2a9" stroke-width="3" stroke-linecap="round" opacity="0.22"/>
  <path d="M118 168 356 91M822 443l245-80M80 407l196-64" fill="none" stroke="#68d8ff" stroke-width="1.5" stroke-linecap="round" opacity="0.18"/>
</svg>
